  <svg
              width="24"
              height="14"
              viewBox="0 0 24 14"
              fill="none"
              xmlns="http://www.w3.org/2000/svg"
            >
              <g clip-path="url(#clip0_964_18526)">
                <path
                  d="M0.571289 0H23.4284V2.28571H0.571289V0ZM6.28557 5.71429H23.4284V8H6.28557V5.71429ZM13.4284 11.4286H23.4284V13.7143H13.4284V11.4286Z"
                  fill="#252B42"
                />
              </g>
              <defs>
                <clipPath id="clip0_964_18526">
                  <rect width="24" height="13.7143" fill="white" />
                </clipPath>
              </defs>
            </svg>
          </div>
        </div>
      </header>
      <main class="main">
        <section class="solution">
          <div class="_container">
            <div class="solution__body">
              <div class="solution__texts">
                <h1 class="solution__title">
                  Finance and Consultancy Solution
                </h1>
                <p class="solution__text">
                  We know how large objects will act, but things on a small
                  scale.
                </p>
                <div class="solution__buttonContainer">
                  <button
                    type="button"
                    class="solution__button solution__button_bg"
                  >
                    Get Quote Now
                  </button>
                  <button
                    type="button"
                    class="solution__button solution__button_border"
                  >
                    Learn More
                  </button>
                </div>
              </div>
              <div class="solution__svgWrapper">
                <svg
                  width="518"
                  height="518"
                  viewBox="0 0 518 518"
                  fill="none"
                  xmlns="http://www.w3.org/2000/svg"
                >
                  <path
                    d="M235.11 208.588C235.11 208.588 265.154 194.374 302.543 192.908C339.932 191.442 384.589 202.75 413.815 253.727L433.721 287.915L453.628 322.103C455.313 324.99 457.04 327.849 458.808 330.681C460.576 333.513 462.35 336.349 464.128 339.192C470.691 349.577 473.452 361.077 472.784 371.722C472.116 382.367 468.075 392.173 461.036 399.176C456.324 403.777 450.509 407.089 444.149 408.795C439.087 410.169 433.852 410.796 428.609 410.655C420.939 410.482 413.267 410.329 405.594 410.194C397.921 410.059 390.249 409.992 382.579 409.992H168.428C158.52 409.992 148.612 410.038 138.705 410.132C128.797 410.225 118.891 410.356 108.987 410.525C105.459 410.601 101.939 410.149 98.5443 409.184C94.2042 407.956 90.2182 405.713 86.9152 402.641C82.0687 398.036 78.8923 391.95 77.8865 385.34C76.7896 378.379 77.845 371.25 80.9116 364.905L85.988 351.686L91.0592 338.472L102.108 309.681L113.157 280.891C118.029 268.772 125.762 258.013 135.697 249.534C145.631 241.054 157.471 235.107 170.204 232.199L202.662 220.383L235.11 208.588Z"
                    fill="#124D90"
                    stroke="black"
                    stroke-width="3"
                    stroke-miterlimit="10"
                    stroke-linecap="round"
                  />
                  <path
                    d="M277.461 234.136C277.772 227.682 278.081 221.231 278.389 214.783C278.696 208.336 279.003 201.883 279.311 195.426C281.103 195.094 282.937 194.778 284.89 194.493C286.842 194.208 288.806 193.975 290.862 193.737C292.44 193.564 293.994 193.423 295.524 193.312C297.054 193.202 298.53 193.112 299.953 193.043C296.206 199.891 292.463 206.741 288.723 213.592L277.461 234.136Z"
                    fill="black"
                    stroke="black"
                    stroke-width="3"
                    stroke-miterlimit="10"
                    stroke-linecap="round"
                  />
                  <path
                    d="M428.593 410.65C425.107 410.784 420.134 408.479 416.037 406.138C413.512 404.703 411.064 403.138 408.702 401.45L363.118 371.561L317.508 341.699L335.664 310.437L353.841 279.171L383.123 295.519L412.411 311.862"
                    stroke="black"
                    stroke-width="3"
                    stroke-miterlimit="10"
                    stroke-linecap="round"
                  />
                  <path
                    d="M200.751 246.366L212.028 242.124L223.31 237.881L222.968 252.333L222.626 266.786C222.626 266.844 222.608 266.901 222.575 266.949C222.541 266.997 222.494 267.034 222.44 267.055C222.387 267.076 222.329 267.082 222.272 267.071C222.216 267.06 222.165 267.033 222.124 266.993L211.437 256.679L200.751 246.366Z"
                    fill="#FFF8F8"
                    stroke="black"
                    stroke-width="3"
                    stroke-miterlimit="10"
                    stroke-linecap="round"
                  />
                  <path
                    d="M221.704 267.873L225.848 338.933L229.992 409.987H306.946L265.397 338.606L223.849 267.226C223.719 267.001 223.517 266.826 223.276 266.73C223.035 266.634 222.768 266.623 222.519 266.698C222.271 266.773 222.055 266.93 221.907 267.143C221.759 267.357 221.687 267.614 221.704 267.873Z"
                    fill="#FFF8F8"
                    stroke="black"
                    stroke-width="3"
                    stroke-miterlimit="10"
                    stroke-linecap="round"
                  />
                  <path
                    d="M268.075 368.769L243.6 355.374L219.114 341.978C219.043 341.94 218.98 341.888 218.929 341.824C218.878 341.761 218.841 341.689 218.819 341.611C218.795 341.533 218.788 341.452 218.797 341.372C218.806 341.292 218.831 341.215 218.871 341.144L273.364 241.58L327.847 142.015L352.862 155.706L377.881 169.386L323.398 268.956L268.915 368.521C268.876 368.592 268.824 368.655 268.761 368.706C268.697 368.756 268.625 368.794 268.547 368.816C268.39 368.863 268.22 368.846 268.075 368.769Z"
                    fill="#F9851C"
                    stroke="black"
                    stroke-width="3"
                    stroke-miterlimit="10"
                    stroke-linecap="round"
                  />
                  <path
                    d="M237.358 353.706C237.22 353.707 237.082 353.689 236.949 353.654C236.812 353.623 236.68 353.574 236.555 353.509C236.144 353.295 235.835 352.927 235.695 352.485C235.555 352.043 235.596 351.564 235.809 351.152L281.668 262.895L327.531 174.638C327.745 174.226 328.114 173.916 328.556 173.776C328.999 173.635 329.479 173.676 329.891 173.89C330.303 174.104 330.613 174.472 330.754 174.915C330.894 175.357 330.853 175.837 330.639 176.249L284.771 264.506L238.907 352.758C238.759 353.046 238.533 353.287 238.254 353.452C237.984 353.616 237.674 353.703 237.358 353.706Z"
                    fill="#14AF6C"
                    stroke="black"
                    stroke-width="3"
                    stroke-miterlimit="10"
                    stroke-linecap="round"
                  />
                  <path
                    d="M254.514 363.118C254.38 363.118 254.246 363.102 254.115 363.071C253.98 363.035 253.848 362.987 253.722 362.926C253.516 362.819 253.334 362.672 253.186 362.495C253.038 362.317 252.926 362.111 252.857 361.89C252.785 361.673 252.757 361.443 252.775 361.214C252.793 360.986 252.856 360.763 252.96 360.559L297.85 272.639L342.735 184.719C342.948 184.31 343.314 184.003 343.752 183.863C344.191 183.723 344.668 183.762 345.078 183.972C345.488 184.182 345.798 184.545 345.942 184.983C346.085 185.421 346.049 185.897 345.843 186.309L300.958 274.224L256.073 362.144C255.925 362.429 255.702 362.668 255.428 362.836C255.155 363.004 254.84 363.094 254.519 363.097L254.514 363.118Z"
                    fill="#14AF6C"
                    stroke="black"
                    stroke-width="3"
                    stroke-miterlimit="10"
                    stroke-linecap="round"
                  />
                  <path
                    d="M170.199 232.214L180.046 269.557L189.894 306.899L206.252 287.184L222.61 267.464L202.175 247.739L181.74 228.013L175.97 230.111L170.199 232.214Z"
                    fill="#0B7545"
                    stroke="black"
                    stroke-width="3"
                    stroke-miterlimit="10"
                    stroke-linecap="round"
                  />
                    <!-- <path
                        d="M223.9 212.665L223.258 240.067L222.611 267.464L248.034 268.536L273.452 269.609L257.161 237.881L240.87 206.154L232.385 209.412L223.9 212.665Z"
                        fill="#0B7545"
                        stroke="black"
                        stroke-width="3"
                        stroke-miterlimit="10"
                        stroke-linecap="round"
                    /> -->
                  <path
                    d="M278.959 231.354L265.081 233.488L251.23 235.623C249.32 236.463 247.595 237.673 246.154 239.181C243.807 241.652 241.849 245.522 243.393 251.095C242.563 251.379 241.778 251.78 241.062 252.287C239.663 253.251 238.575 254.601 237.932 256.173C237.288 257.745 237.115 259.471 237.436 261.139C237.594 262.026 237.878 262.886 238.28 263.693C237.239 263.952 236.252 264.392 235.364 264.993C234.816 265.365 234.319 265.807 233.887 266.309C232.487 268.066 231.796 270.284 231.95 272.525C232.096 275.192 232.955 277.772 234.436 279.994C234.142 280.275 233.873 280.582 233.634 280.911C233.416 281.207 233.224 281.521 233.059 281.849C231.287 285.397 233.09 289.961 235.415 293.716C236.996 296.226 238.825 298.571 240.875 300.714L247.977 288.661C250.339 284.641 252.705 280.621 255.074 276.602L262.351 294.457L269.603 312.312C270.271 313.686 271.268 314.872 272.504 315.768C273.913 316.84 275.669 317.622 277.456 317.498C278.522 317.403 279.542 317.021 280.409 316.394C280.957 316.007 281.46 315.559 281.906 315.058C283.874 312.893 284.32 309.603 283.165 303.356C282.01 297.109 279.259 287.899 274.84 273.908C274.84 273.908 274.322 272.302 273.204 268.759C272.085 265.216 270.308 259.715 267.806 251.955L273.375 241.657L278.959 231.354Z"
                    fill="#FFC0C0"
                    stroke="black"
                    stroke-width="3"
                    stroke-miterlimit="10"
                    stroke-linecap="round"
                  />
                  <path
                    d="M215.426 405.024L223.895 399.295L232.37 393.566L224.429 388.583L216.493 383.594L215.959 394.307L215.426 405.024Z"
                    fill="#D1B7E5"
                    stroke="black"
                    stroke-width="3"
                    stroke-miterlimit="10"
                    stroke-linecap="round"
                  />
                  <path
                    d="M218.565 342.051L217.529 362.823L216.493 383.595L224.429 388.583L232.37 393.566L250.339 381.419L268.324 369.272C268.357 369.251 268.383 369.221 268.401 369.187C268.42 369.152 268.429 369.114 268.428 369.075C268.425 369.036 268.413 368.998 268.392 368.964C268.371 368.931 268.343 368.903 268.308 368.883L243.595 355.348L218.907 341.88C218.872 341.862 218.834 341.852 218.795 341.853C218.756 341.853 218.718 341.863 218.684 341.883C218.65 341.902 218.621 341.929 218.6 341.962C218.579 341.995 218.567 342.033 218.565 342.072V342.051Z"
                    fill="#F7CE21"
                    stroke="black"
                    stroke-width="3"
                    stroke-miterlimit="10"
                    stroke-linecap="round"
                  />
                  <path
                    d="M113.882 133.297C115.97 141.113 115.283 149.411 111.938 156.777C108.594 164.143 102.798 170.121 95.5397 173.693C88.2812 177.265 80.0086 178.209 72.1318 176.365C64.2549 174.521 57.2612 170.003 52.3424 163.58C47.4236 157.157 44.8841 149.228 45.1566 141.143C45.4291 133.057 48.4968 125.317 53.8369 119.24C59.177 113.163 66.4591 109.126 74.4422 107.817C82.4253 106.507 90.6155 108.006 97.6171 112.059C101.593 114.354 105.077 117.411 107.868 121.056C110.659 124.7 112.703 128.86 113.882 133.297Z"
                    fill="#F7CE21"
                    stroke="black"
                    stroke-width="3"
                    stroke-miterlimit="10"
                    stroke-linecap="round"
                  />
                  <path
                    d="M71.8623 282.864H177.182C178.542 301.453 180.98 319.948 184.486 338.254C190.106 366.879 199.668 397.42 215.426 405.024H348.671V410.665L227.309 410.598L105.952 410.531C102.611 406.024 99.8498 401.807 97.5965 398.099C95.3432 394.39 93.5924 391.142 92.287 388.598C84.2218 372.887 79.6478 357.42 76.8973 342.88C74.1467 328.339 73.2246 314.726 72.4787 302.724C72.2094 298.394 72.054 294.478 71.9607 291.121C71.8675 287.765 71.8623 284.952 71.8623 282.864Z"
                    fill="#FFF8F8"
                    stroke="black"
                    stroke-width="3"
                    stroke-miterlimit="10"
                    stroke-linecap="round"
                  />
                  <path
                    d="M55.2031 328.469H158.182C163.903 342.043 170.781 355.1 178.741 367.495C191.572 387.293 209.526 407.676 229.987 409.971L167.967 410.256L105.952 410.525C105.952 410.525 96.4411 404.092 85.3404 390.619C74.2396 377.145 61.559 356.633 55.2031 328.469Z"
                    fill="#CB89FF"
                    stroke="black"
                    stroke-width="3"
                    stroke-miterlimit="10"
                    stroke-linecap="round"
                  />
                  <path
                    d="M49.9043 346.765H141.383C146.392 356.705 151.952 366.359 158.037 375.679C167.822 390.587 180.528 406.397 192.225 409.987L149.081 410.256L105.952 410.525C105.952 410.525 98.1197 411.266 87.2055 403.667C76.2912 396.068 62.2741 380.134 49.9043 346.765Z"
                    fill="#F25953"
                    stroke="black"
                    stroke-width="3"
                    stroke-miterlimit="10"
                    stroke-linecap="round"
                  />
                  <path
                    d="M243.372 251.09L249.205 263.838L255.032 276.586"
                    stroke="black"
                    stroke-width="3"
                    stroke-miterlimit="10"
                    stroke-linecap="round"
                  />
                  <path
                    d="M234.872 177.928L220.595 182.812L206.314 187.692C207.864 191.454 209.904 194.995 212.38 198.223C217.686 205.224 225.132 210.302 233.587 212.686C235.969 213.36 238.406 213.823 240.87 214.069C241.573 210.799 241.941 207.467 241.968 204.123C241.992 200.645 241.659 197.173 240.974 193.763C240.406 190.936 239.597 188.163 238.555 185.475C237.544 182.859 236.312 180.334 234.872 177.928Z"
                    fill="black"
                    stroke="black"
                    stroke-width="3"
                    stroke-miterlimit="10"
                    stroke-linecap="round"
                  />
                  <path
                    d="M228.003 210.665C226.967 210.21 226.2 209.795 225.579 209.438C224.957 209.08 224.512 208.795 224.201 208.583C223.973 208.428 223.761 208.283 223.579 208.148L223.103 207.791H223.502L223.968 207.765C223.968 207.765 224.128 207.765 224.367 207.723C224.605 207.682 224.926 207.651 225.242 207.589C226.982 207.261 228.617 206.516 230.006 205.419C231.396 204.321 232.499 202.904 233.221 201.287C233.943 199.67 234.263 197.902 234.153 196.135C234.042 194.368 233.506 192.654 232.589 191.139C231.671 189.625 230.401 188.355 228.886 187.438C227.371 186.522 225.656 185.986 223.889 185.877C222.121 185.768 220.354 186.088 218.738 186.811C217.121 187.534 215.704 188.638 214.607 190.028C212.975 192.09 212.102 194.651 212.137 197.28C211.582 196.659 210.987 195.944 210.386 195.136C209.736 194.266 209.135 193.362 208.583 192.427C208.065 191.567 207.64 190.733 207.267 189.935C206.894 189.137 206.578 188.381 206.314 187.692L181.968 196.022L157.622 204.351C157.702 205.335 157.807 206.323 157.938 207.314C158.07 208.305 158.242 209.3 158.456 210.298C160.963 222.818 167.853 233.219 176.97 239.927C186.086 246.635 197.358 249.635 208.754 247.355C216.755 245.732 224.05 241.654 229.624 235.69C235.275 229.644 239.164 222.167 240.87 214.069C239.323 213.91 237.786 213.668 236.265 213.343C234.903 213.053 233.727 212.737 232.743 212.437C232.225 212.271 231.505 212.048 230.702 211.758C229.899 211.468 228.956 211.106 228.003 210.665Z"
                    fill="#FFC0C0"
                    stroke="black"
                    stroke-width="3"
                    stroke-miterlimit="10"
                    stroke-linecap="round"
                  />
                  <path
                    d="M218.296 210.826C218.562 212.157 218.358 213.54 217.719 214.738C217.08 215.936 216.046 216.875 214.792 217.396C213.538 217.917 212.143 217.987 210.843 217.594C209.543 217.201 208.42 216.37 207.664 215.242C206.909 214.114 206.568 212.759 206.699 211.408C206.83 210.057 207.426 208.793 208.385 207.832C209.343 206.87 210.606 206.271 211.957 206.136C213.308 206.001 214.664 206.339 215.794 207.091C216.437 207.517 216.989 208.067 217.419 208.708C217.848 209.349 218.146 210.069 218.296 210.826Z"
                    fill="#FF9CE4"
                    stroke="black"
                    stroke-width="3"
                    stroke-miterlimit="10"
                    stroke-linecap="round"
                  />
                  <path
                    d="M190.235 235.783C190.501 237.114 190.298 238.497 189.659 239.695C189.02 240.893 187.986 241.832 186.732 242.353C185.478 242.874 184.082 242.944 182.783 242.551C181.483 242.159 180.36 241.328 179.604 240.2C178.849 239.072 178.508 237.717 178.639 236.365C178.77 235.014 179.366 233.75 180.325 232.789C181.283 231.827 182.546 231.228 183.897 231.093C185.248 230.958 186.604 231.296 187.734 232.048C188.376 232.475 188.929 233.025 189.358 233.666C189.787 234.307 190.086 235.026 190.235 235.783Z"
                    fill="#FF9CE4"
                    stroke="black"
                    stroke-width="3"
                    stroke-miterlimit="10"
                    stroke-linecap="round"
                  />
                  <path
                    d="M179.435 223.139C179.559 223.755 179.434 224.396 179.088 224.921C178.738 225.441 178.197 225.803 177.582 225.926C176.966 226.049 176.327 225.924 175.804 225.579C175.281 225.229 174.918 224.687 174.794 224.071C174.732 223.766 174.731 223.452 174.792 223.147C174.852 222.842 174.973 222.552 175.146 222.294C175.318 222.035 175.54 221.813 175.798 221.64C176.057 221.467 176.347 221.346 176.652 221.285C176.957 221.224 177.271 221.223 177.576 221.284C177.881 221.344 178.171 221.464 178.43 221.637C178.688 221.808 178.91 222.029 179.083 222.287C179.255 222.545 179.375 222.834 179.435 223.139Z"
                    fill="#231F20"
                  />
                  <path
                    d="M199.844 209.101C199.952 209.639 199.87 210.198 199.612 210.683C199.354 211.167 198.936 211.547 198.429 211.758C197.922 211.969 197.358 211.998 196.833 211.839C196.307 211.68 195.853 211.344 195.547 210.888C195.242 210.432 195.104 209.885 195.157 209.338C195.21 208.792 195.451 208.281 195.839 207.892C196.226 207.504 196.737 207.261 197.283 207.207C197.829 207.153 198.377 207.289 198.834 207.594C199.357 207.943 199.72 208.485 199.844 209.101Z"
                    fill="#231F20"
                  />
                  <path
                    d="M172.37 211.111C177.487 205.682 183.827 201.555 190.862 199.073C192.574 198.472 194.319 197.971 196.089 197.57"
                    stroke="black"
                    stroke-width="3"
                    stroke-miterlimit="10"
                    stroke-linecap="round"
                  />
                  <path
                    d="M177.928 206.993L183.771 216.57L189.614 226.148L190.898 225.221L192.183 224.289"
                    stroke="black"
                    stroke-width="3"
                    stroke-miterlimit="10"
                    stroke-linecap="round"
                  />
                  <path
                    d="M190.593 156.705C180.103 158.808 171.391 165.024 165.532 173.561C159.435 182.611 156.628 193.48 157.581 204.351L196.229 191.142L234.872 177.933C230.37 170.272 223.743 164.08 215.794 160.109C208.002 156.215 199.138 155.018 190.593 156.705Z"
                    fill="#F9851C"
                    stroke="black"
                    stroke-width="3"
                    stroke-miterlimit="10"
                    stroke-linecap="round"
                  />
                  <path
                    d="M220.435 201.077L223.242 197.607L226.045 194.131"
                    stroke="black"
                    stroke-width="3"
                    stroke-miterlimit="10"
                    stroke-linecap="round"
                  />
                  <path
                    d="M172.251 199.332C173.868 203.377 174.229 207.816 173.287 212.069C172.405 216.122 170.222 219.774 167.071 222.471C165.885 223.468 164.573 224.305 163.17 224.962C158.684 227.044 153.564 227.299 148.894 225.672C146.516 224.84 144.352 223.49 142.56 221.719C140.768 219.948 139.393 217.8 138.534 215.431C138.006 213.975 137.692 212.45 137.602 210.904C137.443 207.52 138.225 204.158 139.86 201.191C141.528 198.202 144.082 195.768 147.464 194.794C149.494 194.232 151.633 194.194 153.68 194.685C155.027 194.996 156.329 195.476 157.555 196.115C157.482 196.923 157.425 197.767 157.394 198.648C157.363 199.528 157.353 200.445 157.394 201.398C157.394 201.916 157.425 202.434 157.451 202.911C157.477 203.388 157.513 203.885 157.555 204.351L164.9 201.844L172.251 199.332Z"
                    fill="black"
                    stroke="black"
                    stroke-width="3"
                    stroke-miterlimit="10"
                    stroke-linecap="round"
                  />
                  <path
                    d="M158.586 189.604L192.758 178.757L226.925 167.91"
                    stroke="black"
                    stroke-width="3"
                    stroke-miterlimit="10"
                    stroke-linecap="round"
                  />
                  <path
                    d="M168.925 186.325L170.251 192.945L171.577 199.565"
                    stroke="black"
                    stroke-width="3"
                    stroke-miterlimit="10"
                    stroke-linecap="round"
                  />
                  <path
                    d="M182.445 182.134L183.698 188.391L184.952 194.649"
                    stroke="black"
                    stroke-width="3"
                    stroke-miterlimit="10"
                    stroke-linecap="round"
                  />
                  <path
                    d="M198.964 177.063L200.197 183.211L201.43 189.36"
                    stroke="black"
                    stroke-width="3"
                    stroke-miterlimit="10"
                    stroke-linecap="round"
                  />
                  <path
                    d="M215.757 171.717L216.923 177.529L218.088 183.346"
                    stroke="black"
                    stroke-width="3"
                    stroke-miterlimit="10"
                    stroke-linecap="round"
                  />
                  <path
                    d="M195.151 232.582C196.673 232.735 198.209 232.502 199.617 231.903C201.896 230.904 204.279 228.588 204.626 223.32"
                    stroke="black"
                    stroke-width="3"
                    stroke-miterlimit="10"
                    stroke-linecap="round"
                  />
                  <path
                    d="M380.922 157.498C380.914 164.209 378.58 170.709 374.317 175.892C370.054 181.075 364.126 184.619 357.543 185.921C350.96 187.224 344.129 186.203 338.213 183.034C332.298 179.864 327.665 174.742 325.103 168.54C322.541 162.337 322.209 155.438 324.163 149.018C326.117 142.598 330.236 137.055 335.819 133.331C341.402 129.608 348.104 127.935 354.782 128.599C361.459 129.262 367.701 132.221 372.442 136.97C375.138 139.664 377.275 142.865 378.73 146.388C380.185 149.911 380.93 153.686 380.922 157.498Z"
                    fill="#F7CE21"
                    stroke="black"
                    stroke-width="3"
                    stroke-miterlimit="10"
                    stroke-linecap="round"
                  />
                  <path
                    d="M367.262 157.498C367.257 161.05 366.021 164.492 363.764 167.235C361.508 169.979 358.369 171.855 354.884 172.545C351.399 173.234 347.783 172.694 344.651 171.017C341.52 169.339 339.066 166.628 337.709 163.345C336.352 160.062 336.175 156.409 337.209 153.01C338.242 149.611 340.422 146.676 343.377 144.704C346.331 142.731 349.879 141.844 353.414 142.194C356.949 142.543 360.254 144.107 362.766 146.62C364.196 148.046 365.33 149.742 366.102 151.609C366.873 153.476 367.268 155.478 367.262 157.498Z"
                    fill="#CB89FF"
                    stroke="black"
                    stroke-width="3"
                    stroke-miterlimit="10"
                    stroke-linecap="round"
                  />
                  <path
                    d="M238.358 263.662L244.014 274.255L249.676 284.843"
                    fill="#104FC1"
                  />
                  <path
                    d="M238.358 263.662L244.014 274.255L249.676 284.843"
                    stroke="black"
                    stroke-width="3"
                    stroke-miterlimit="10"
                    stroke-linecap="round"
                  />
                  <path
                    d="M234.328 280.057L239.378 287.309L244.423 294.561"
                    fill="#FFC0C0"
                  />
                  <path
                    d="M234.328 280.057L239.378 287.309L244.423 294.561"
                    stroke="black"
                    stroke-width="3"
                    stroke-miterlimit="10"
                    stroke-linecap="round"
                  />
                  <path
                    d="M353.846 279.171C350.22 275.866 343.698 271.101 337.156 266.335C330.613 261.569 324.061 256.804 320.461 253.499C318.911 251.911 316.971 250.76 314.834 250.162C312.698 249.565 310.441 249.542 308.293 250.096L290.344 254.711L272.401 259.332C271.65 259.523 270.893 259.699 270.142 259.875C269.391 260.052 268.63 260.217 267.878 260.393C265.847 260.825 263.928 261.68 262.248 262.901C260.901 263.839 259.954 265.247 259.59 266.848C259.494 267.376 259.482 267.916 259.554 268.448C259.589 268.728 259.652 269.004 259.741 269.272C260.212 270.691 261.383 271.862 263.051 272.696C265.018 273.611 267.159 274.091 269.329 274.105L270.484 274.136L271.639 274.167H272.157L273.25 274.209C279.388 274.478 284.128 274.685 287.837 275.338C291.546 275.99 294.193 277.083 296.125 279.13C296.726 279.725 297.163 280.465 297.394 281.279C297.937 282.802 298.631 284.267 299.466 285.651C301.583 289.348 304.174 292.753 307.174 295.778L298.368 313.323L289.562 330.862C290.733 331.582 291.997 332.297 293.349 332.996C294.701 333.696 296.151 334.374 297.689 335.017C301.408 336.564 305.275 337.727 309.23 338.487C312.384 339.089 315.579 339.446 318.788 339.554L336.337 309.36L353.846 279.171Z"
                    fill="#FFC0C0"
                    stroke="black"
                    stroke-width="3"
                    stroke-miterlimit="10"
                    stroke-linecap="round"
                  />
                  <path
                    d="M297.223 281.549C299.144 285.65 301.597 289.482 304.517 292.945C309.315 298.732 315.575 303.13 322.647 305.682C325.189 306.569 327.815 307.196 330.484 307.552C332.683 307.847 334.901 307.97 337.12 307.92"
                    stroke="black"
                    stroke-width="3"
                    stroke-miterlimit="10"
                    stroke-linecap="round"
                  />
                  <path
                    d="M93.4212 184.708L80.9892 167.298L68.5572 149.894C68.204 149.403 67.9134 148.871 67.6922 148.309C67.4703 147.75 67.3324 147.162 67.2829 146.563C67.1688 145.141 67.5068 143.719 68.2489 142.5C68.9909 141.281 70.099 140.328 71.415 139.777C72.7309 139.226 74.1874 139.104 75.5766 139.43C76.9657 139.755 78.2165 140.511 79.1503 141.59L83.2011 145.268L87.257 148.946C87.7158 149.364 88.07 149.885 88.2913 150.465C88.5126 151.045 88.5948 151.669 88.5313 152.287C88.4756 152.9 88.2679 153.49 87.9269 154.003C87.586 154.516 87.1225 154.935 86.5784 155.224C86.0179 155.521 85.392 155.673 84.7577 155.666C84.1234 155.659 83.5009 155.494 82.9468 155.185C82.3928 154.876 81.9249 154.433 81.5857 153.897C81.2465 153.361 81.0468 152.749 81.0048 152.116L80.6214 146.356L80.2433 140.596C80.1528 139.101 80.4527 137.609 81.1135 136.265C81.7345 134.994 82.7212 133.937 83.947 133.23C85.0118 132.637 86.2146 132.336 87.4331 132.359C88.0346 132.361 88.6334 132.439 89.2151 132.592C89.6205 132.709 90.0128 132.867 90.3858 133.064C90.7224 133.237 91.0431 133.44 91.344 133.67C91.9247 134.116 92.4271 134.655 92.8307 135.265C93.2378 135.884 93.5503 136.559 93.7579 137.27C95.7678 144.108 97.7793 150.942 99.7926 157.772L105.827 178.275"
                    stroke="black"
                    stroke-width="3"
                    stroke-miterlimit="10"
                    stroke-linecap="round"
                  />
                  <path
                    d="M117.083 188.511L105.977 194.291L94.8767 200.072L89.0958 188.972L83.3149 177.871L94.4157 172.09L105.522 166.309L111.302 177.41L117.083 188.511Z"
                    fill="#F9851C"
                    stroke="black"
                    stroke-width="3"
                    stroke-miterlimit="10"
                    stroke-linecap="round"
                  />
                  <path
                    d="M87.1172 185.169L98.3164 179.575L109.516 173.986"
                    stroke="black"
                    stroke-width="3"
                    stroke-miterlimit="10"
                    stroke-linecap="round"
                  />
                  <path
                    d="M91.0957 192.805L102.295 187.21L113.494 181.621"
                    stroke="black"
                    stroke-width="3"
                    stroke-miterlimit="10"
                    stroke-linecap="round"
                  />
                  <path
                    d="M355.804 366.785L362.823 371.484C366.993 374.281 372.494 377.964 377.798 381.507C400.947 396.98 406.381 400.512 406.837 400.714C407.293 400.916 402.76 397.803 405.977 399.989C406.863 400.59 408.376 401.616 410.437 402.895C412.499 404.175 415.099 405.703 418.15 407.298C419.585 408.044 420.901 408.692 422.051 409.236C423.201 409.779 424.19 410.23 424.962 410.567L401.45 410.189L377.938 409.81C374.25 402.641 370.56 395.47 366.868 388.298L355.804 366.785Z"
                    fill="black"
                    stroke="black"
                    stroke-width="3"
                    stroke-miterlimit="10"
                    stroke-linecap="round"
                  />
                  <path
                    d="M206.817 356.736C206.817 357.439 206.575 358.12 206.13 358.663C205.685 359.206 205.065 359.579 204.377 359.717C203.688 359.854 202.973 359.749 202.353 359.419C201.733 359.088 201.247 358.553 200.978 357.905C200.708 357.256 200.672 356.534 200.875 355.862C201.079 355.19 201.509 354.609 202.092 354.218C202.676 353.827 203.377 353.651 204.076 353.719C204.775 353.787 205.429 354.096 205.926 354.592C206.208 354.873 206.433 355.207 206.585 355.575C206.738 355.943 206.817 356.338 206.817 356.736Z"
                    fill="black"
                    stroke="black"
                    stroke-width="3"
                    stroke-miterlimit="10"
                    stroke-linecap="round"
                  />
                </svg>